<?xml version="1.0" standalone="no"?>
<!DOCTYPE svg PUBLIC "-//W3C//DTD SVG 20010904//EN"
 "http://www.w3.org/TR/2001/REC-SVG-20010904/DTD/svg10.dtd">
<svg version="1.0" xmlns="http://www.w3.org/2000/svg"
 width="225.000000pt" height="225.000000pt" viewBox="0 0 225.000000 225.000000"
 preserveAspectRatio="xMidYMid meet">

<g transform="translate(0.000000,225.000000) scale(0.100000,-0.100000)"
fill="#000000" stroke="none">
<path d="M985 2149 c-99 -14 -229 -56 -322 -103 -210 -105 -365 -263 -468
-477 -70 -146 -97 -264 -98 -434 -1 -81 4 -165 11 -200 88 -409 368 -709 761
-816 116 -32 336 -37 461 -11 209 43 369 130 521 281 198 197 295 415 307 689
5 138 -7 235 -45 357 -151 478 -635 785 -1128 714z m306 -55 c401 -69 718
-374 801 -772 29 -138 21 -338 -17 -467 -43 -148 -116 -280 -209 -381 l-45
-49 -1 40 c0 22 -7 69 -15 104 -42 178 -179 319 -356 366 -79 21 -512 21 -594
0 -215 -56 -365 -252 -365 -476 0 -43 -4 -79 -9 -79 -15 0 -130 130 -177 202
-60 89 -101 183 -132 298 -21 79 -25 118 -26 235 -1 185 24 293 102 450 49
100 108 179 198 266 90 86 139 121 240 172 192 97 394 127 605 91z m171 -1215
c193 -65 308 -230 308 -443 l0 -62 -62 -46 c-124 -91 -275 -153 -430 -178
-105 -17 -300 -8 -401 19 -89 23 -224 84 -292 131 l-47 32 4 122 c3 112 6 126
35 189 55 115 178 220 290 246 21 5 150 9 286 10 226 1 253 -1 309 -20z"/>
<path d="M1028 1831 c-81 -26 -136 -61 -192 -120 -151 -162 -146 -417 11 -574
95 -95 193 -132 334 -125 76 4 97 9 162 41 280 139 320 521 73 707 -76 58
-144 82 -246 86 -65 3 -99 0 -142 -15z m287 -66 c76 -36 149 -109 183 -183 23
-49 27 -70 27 -152 0 -87 -3 -101 -32 -161 -39 -79 -102 -140 -181 -177 -50
-24 -69 -27 -162 -27 -94 0 -111 3 -161 27 -76 38 -146 109 -183 188 -26 55
-30 76 -30 145 1 101 28 175 91 245 85 94 173 131 303 127 69 -3 96 -9 145
-32z"/>
</g>
</svg>
